# xmcd
#
# Track frame offsets: 
#        183
#        14275
#        27688
#        40195
#        52870
#        63435
#        74705
#        84968
#        92840
#        103258
#        115730
#        129488
#        143515
#        157075
#        168075
#        178990
#        191313
#        203588
#        215885
#        229188
#        241448
#        253413
#        267043
#        276773
#
# Disc length: 3908 seconds
#
# Revision: 3
# Processed by: cddbd v1.5.2PL0 Copyright (c) Steve Scherf et al.
# Submitted via: ExactAudioCopy v1.0b1
#
DISCID=5f0f4218
DTITLE=Jimmy Reed - Vee-Jay Years - Disc 6
DYEAR=1994
DGENRE=Blues
TTITLE0=The Comeback
TTITLE1=How Long Blues
TTITLE2=Roll 'Em Pete
TTITLE3=Cherry Red
TTITLE4=Wee Wee Baby
TTITLE5=St. Louis Blues
TTITLE6=Worried Life Blues
TTITLE7=Blues For 12 Strings
TTITLE8=New Chicago Blues
TTITLE9=Wear Something Green
TTITLE10=Help Yourself
TTITLE11=Heading For A Fall
TTITLE12=Going Fishing
TTITLE13=Left Handed Woman
TTITLE14=I Wanna Be Loved
TTITLE15=Fifteen Years
TTITLE16=New Leaf
TTITLE17=When You're Doing All Right
TTITLE18=I'm Going Upside Your Head
TTITLE19=The Devil's Shoestring
TTITLE20=You've Got Me Waiting
TTITLE21=I'm The Man Down There
TTITLE22=When Girls Do It
TTITLE23=Don't Think I'm Through
EXTD=
EXTT0=
EXTT1=
EXTT2=
EXTT3=
EXTT4=
EXTT5=
EXTT6=
EXTT7=
EXTT8=
EXTT9=
EXTT10=
EXTT11=
EXTT12=
EXTT13=
EXTT14=
EXTT15=
EXTT16=
EXTT17=
EXTT18=
EXTT19=
EXTT20=
EXTT21=
EXTT22=
EXTT23=
PLAYORDER=
